{"title":"Lost S01E15 - AVM","uid":5044059,"size":136369652,"categoryP":"video","categoryS":"tv_shows","magnet":"?xt=urn:btih:0006ebe81828e83eef6a635c22b92642f865be7e&amp;dn=Lost+S01E15+-+AVM&amp;tr=udp%3A%2F%2Ftracker.openbittorrent.com%3A80&amp;tr=udp%3A%2F%2Fopen.demonii.com%3A1337&amp;tr=udp%3A%2F%2Ftracker.coppersurfer.tk%3A6969&amp;tr=udp%3A%2F%2Fexodus.desync.com%3A6969","seeders":0,"leechers":1,"uploader":"SysProfile","files":1,"time":1249535201,"description":"AVIDMobile - http://www.avidmobile.com.ar (Mobile media)\n\nVideo\nID                               : 1\nFormat                           : MPEG-4 Visual\nFormat profile                   : Simple@L1\nFormat settings, BVOP            : No\nFormat settings, QPel            : No\nFormat settings, GMC             : No warppoints\nFormat settings, Matrix          : Default (H.263)\nCodec ID                         : 20\nDuration                         : 41mn 38s\nBit rate mode                    : Variable\nBit rate                         : 370 Kbps\nMaximum bit rate                 : 2 055 Kbps\nWidth                            : 320 pixels\nHeight                           : 240 pixels\nDisplay aspect ratio             : 4/3\nFrame rate mode                  : Variable\nFrame rate                       : 23.976 fps\nMinimum frame rate               : 23.974 fps\nMaximum frame rate               : 23.981 fps\nResolution                       : 24 bits\nColorimetry                      : 4:2:0\nScan type                        : Progressive\nBits/(Pixel*Frame)               : 0.201\nStream size                      : 110 MiB (85%)\n\nAudio\nID                               : 2\nFormat                           : AAC\nFormat/Info                      : Advanced Audio Codec\nFormat version                   : Version 4\nFormat profile                   : LC\nFormat settings, SBR             : No\nCodec ID                         : 40\nDuration                         : 41mn 38s\nBit rate mode                    : Variable\nBit rate                         : 64.8 Kbps\nMaximum bit rate                 : 130 Kbps\nChannel(s)                       : 2 channels\nChannel positions                : L R\nSampling rate                    : 22.05 KHz\nResolution                       : 16 bits\nStream size                      : 19.3 MiB (15%)\n","torrent":{"xt":"urn:btih:0006ebe81828e83eef6a635c22b92642f865be7e","amp;dn":"Lost+S01E15+-+AVM","amp;tr":["udp%3A%2F%2Ftracker.openbittorrent.com%3A80","udp%3A%2F%2Fopen.demonii.com%3A1337","udp%3A%2F%2Ftracker.coppersurfer.tk%3A6969","udp%3A%2F%2Fexodus.desync.com%3A6969"],"infoHash":"0006ebe81828e83eef6a635c22b92642f865be7e","infoHashBuffer":{"type":"Buffer","data":[0,6,235,232,24,40,232,62,239,106,99,92,34,185,38,66,248,101,190,126]},"announce":[],"urlList":[]}}